<svg t="1737155567059" class="icon" viewBox="0 0 1024 1024" version="1.1" xmlns="http://www.w3.org/2000/svg" p-id="19106" width="25" height="25"><path d="M1001.856 170.666667c-15.872 0.512-11.008 5.12-45.056 13.525333-38.528 4.010667-76.629333 11.221333-113.92 21.632-110.933333 46.762667-133.12 206.506667-234.026667 263.765333-75.434667 42.794667-151.509333 46.250667-219.946666 67.669334a401.92 401.92 0 0 0-134.826667 78.506666c-31.658667 27.306667-32.426667 51.370667-65.493333 85.76-35.370667 36.693333-140.501333 0.64-188.117334 56.746667 15.36 15.658667 21.930667 20.010667 52.352 15.914667-6.272 11.946667-43.178667 22.058667-35.84 39.509333 7.68 18.346667 96.853333 30.848 177.92-18.346667 37.845333-22.954667 67.925333-55.893333 126.72-63.829333 84.48-4.565333 169.216 1.962667 252.032 19.328a394.581333 394.581333 0 0 1-60.373333 96.341333c-6.442667 7.04 13.056 7.68 35.413333 3.669334a351.061333 351.061333 0 0 0 99.498667-35.754667c37.248-21.76 42.88-77.653333 88.618667-89.685333a102.101333 102.101333 0 0 0 137.728 17.152c-37.717333-10.752-48.128-91.306667-35.413334-126.848 12.074667-33.621333 24.021333-87.424 36.138667-131.84 13.056-47.786667 17.92-107.989333 33.706667-132.266667a312.021333 312.021333 0 0 1 72.746666-69.802667 102.656 102.656 0 0 0 42.666667-87.808c-0.213333-15.232-8.106667-23.68-22.442667-23.125333L1001.856 170.666667z" fill="#002B64" p-id="19107"></path><path d="M33.194667 810.453333a226.474667 226.474667 0 0 0 139.306666-20.181333 1253.504 1253.504 0 0 1 124.330667-67.669333c68.48-22.016 143.530667 0 216.704 4.437333 17.621333 1.237333 35.370667 0.938667 52.992-0.853333 27.264-16.768 26.666667-79.658667 53.162667-85.504a304 304 0 0 1-74.538667 192.426666 213.546667 213.546667 0 0 0 159.146667-121.856c9.984-19.285333 18.517333-39.296 25.6-59.861333 11.392 8.789333 4.949333 35.413333 10.666666 49.92 54.826667-30.677333 86.058667-100.48 106.837334-171.178667 23.978667-81.792 33.792-164.522667 49.322666-188.757333 16.213333-21.461333 36.48-39.509333 59.605334-53.205333a96.341333 96.341333 0 0 0 49.92-67.925334c-25.6-2.346667-31.701333-8.362667-35.456-21.376a76.544 76.544 0 0 1-38.101334 9.258667c-11.605333 0.384-24.362667 0-39.978666 1.450667-128.853333 13.312-145.237333 155.904-227.84 236.757333a194.048 194.048 0 0 1-19.328 16.512 405.546667 405.546667 0 0 1-97.024 49.664c-52.821333 20.224-102.997333 21.717333-152.576 39.168-36.394667 12.885333-71.082667 30.336-103.082667 52.010667-7.296 5.12-14.592 10.24-20.992 15.701333a206.165333 206.165333 0 0 0-40.234667 46.805333c-11.349333 18.346667-24.576 35.413333-39.424 51.029334-27.477333 26.965333-129.706667 7.893333-165.76 33.066666a29.312 29.312 0 0 0-9.344 9.984c19.626667 9.002667 32.938667 3.413333 55.381334 5.973334 2.986667 21.546667-46.634667 34.346667-39.338667 44.288v-0.170667 0.085333z" fill="#C49A6C" p-id="19108"></path><path d="M849.877333 263.082667a30.293333 30.293333 0 0 0 34.773334 3.242666c11.093333-6.4 17.066667-19.072 14.890666-31.744-28.330667-2.389333-44.8 7.253333-49.664 28.501334z m127.146667-36.992a95.573333 95.573333 0 0 0-14.122667 49.408c0 4.48-3.413333 7.338667-3.456 0.597333-0.085333-17.92 4.778667-35.498667 14.08-50.816 3.2-5.888 5.290667-3.413333 3.498667 0.853333z m-4.906667-4.010667a118.144 118.144 0 0 0-21.930666 53.418667c-0.426667 4.437333-4.053333 7.381333-3.456 0.341333 2.56-19.882667 10.154667-38.741333 21.930666-54.912 3.84-5.418667 5.674667-2.816 3.413334 1.109333z m-4.394666-4.949333c-15.018667 15.914667-26.026667 35.2-32.213334 56.234666-0.768 4.352-4.608 6.826667-3.626666 0 6.186667-21.504 17.237333-41.216 32.298666-57.685333 4.437333-5.12 5.973333-2.56 3.541334 1.450667z m-4.053334-5.674667a191.445333 191.445333 0 0 0-40.96 60.202667c-1.450667 4.266667-5.546667 6.186667-3.498666-0.426667a190.762667 190.762667 0 0 1 41.386666-61.696c4.949333-4.650667 6.101333-1.706667 3.072 1.834667v0.085333z" fill="#002B64" p-id="19109"></path></svg>