<svg t="1712114235556" class="icon" viewBox="0 0 1024 1024" version="1.1" xmlns="http://www.w3.org/2000/svg" p-id="9734" width="25" height="25"><path d="M416.853333 616.96v95.146667H360.106667c-18.346667-0.426667-20.053333-10.666667-19.626667-14.933334v-80.213333h-38.4c0.853333 0.853333 0 81.066667 0 82.773333 0.426667 16.64 21.333333 31.146667 54.613333 31.573334h59.733334v1.28c0 3.413333 2.56 15.36-19.2 17.92H302.08v19.2h99.84c16.64-0.426667 53.333333-4.266667 52.906667-33.706667v-119.04zM266.24 563.2c-27.306667-8.533333-45.226667-1.28-53.76 17.493333l-54.186667 122.026667L105.813333 580.266667c-5.973333-14.08-17.92-21.333333-34.986666-20.906667a71.253333 71.253333 0 0 0-18.773334 3.413333c-11.52 3.413333-17.066667 10.24-17.066666 23.893334v144.213333h38.4v-140.8l52.906666 120.32c6.4 14.933333 15.36 20.48 32.853334 20.48s26.026667-5.546667 32.853333-20.48L244.906667 593.066667v137.813333h37.973333v-143.786667c0.426667-13.653333-5.12-20.48-16.64-23.893333z" fill="#017590" p-id="9735"></path><path d="M474.026667 597.76v23.466667c0 16.64 14.506667 30.293333 46.506666 33.706666h49.066667c21.333333 0 19.2 16.64 19.2 19.2v19.2a17.92 17.92 0 0 1-19.2 19.2h-95.573333v19.2h95.573333a82.346667 82.346667 0 0 0 34.133333-7.253333c16.213333-7.253333 22.613333-17.493333 22.613334-30.293333v-27.306667c0-29.44-36.266667-30.293333-57.173334-30.293333h-37.973333c-14.933333 0-17.493333-8.96-19.2-19.2v-19.2c1.706667-7.68 5.12-17.92 18.346667-19.2h96v-19.2h-90.453334c-14.933333 0-61.866667 1.706667-61.866666 37.973333zM816.64 692.906667v-95.146667c0-20.053333-13.226667-34.133333-41.386667-37.973333h-92.16c-28.16 3.84-37.973333 17.92-37.973333 37.973333v95.146667c0 18.346667 10.24 29.866667 31.573333 35.413333a72.106667 72.106667 0 0 0 19.626667 2.986667H763.733333l21.333334 19.2h43.093333l-29.44-26.453334c13.653333-5.973333 17.92-14.933333 17.92-31.146666z m-41.386667 9.813333l-10.24-9.386667h-43.093333l21.333333 19.2h-37.12a23.04 23.04 0 0 1-22.613333-19.2v-93.44a21.333333 21.333333 0 0 1 22.613333-20.906666H755.2a24.746667 24.746667 0 0 1 23.466667 19.2s0.426667 88.746667 0.426666 95.146666a12.373333 12.373333 0 0 1-3.84 9.386667zM900.693333 712.106667c-19.626667 0-26.453333-8.106667-26.453333-20.053334v-132.266666H836.266667v132.693333c0 23.04 13.226667 35.84 47.36 38.4h104.96v-19.2z" fill="#F49214" p-id="9736"></path><path d="M692.906667 317.866667a43.52 43.52 0 0 0-10.666667 1.28h0.426667a75.52 75.52 0 0 0 8.106666 10.24l5.546667 12.373333h0.426667a14.506667 14.506667 0 0 0 5.12-12.8c-1.28-1.28-1.706667-3.413333-2.986667-5.12s-4.266667-3.84-5.973333-5.973333z" fill="#017590" p-id="9737"></path><path d="M866.133333 489.386667c3.84 5.12 19.2 8.106667 26.026667 11.093333a160.426667 160.426667 0 0 1 17.493333 6.826667c8.96 5.12 17.493333 11.52 25.6 17.493333s16.64 9.386667 17.493334 14.506667c-20.48-0.426667-36.266667 1.28-49.493334 6.826666-3.84 1.706667-9.813333 1.706667-10.666666 6.4s2.56 5.546667 3.84 8.106667a64.853333 64.853333 0 0 0 13.226666 15.786667c5.12 3.84 10.666667 8.106667 16.213334 11.52s21.333333 9.386667 30.72 15.786666 11.52 8.106667 17.066666 12.373334 4.693333 5.12 8.106667 6.4c-1.706667-2.56-2.133333-5.546667-3.84-8.106667l-7.68-7.68a124.586667 124.586667 0 0 0-26.88-25.6c-8.106667-5.546667-25.6-13.653333-29.013333-22.613333h-0.426667a121.173333 121.173333 0 0 0 17.493333-4.266667c8.96-2.133333 16.64-1.706667 25.6-3.84l12.373334-3.413333v-2.56c-4.693333-4.693333-7.68-10.666667-12.8-14.933334a370.773333 370.773333 0 0 0-41.813334-31.573333c-8.106667-5.12-18.346667-8.533333-26.88-12.8s-8.106667-2.133333-9.813333-4.693333a121.6 121.6 0 0 1-10.666667-19.626667c-7.253333-14.08-14.506667-29.44-20.906666-44.373333a238.933333 238.933333 0 0 0-12.8-29.013334c-26.453333-43.52-55.04-69.546667-98.986667-95.573333-9.386667-5.546667-20.48-7.68-32.426667-10.24l-19.2-1.28a97.28 97.28 0 0 1-11.52-8.96c-8.96-5.546667-27.306667-15.786667-42.24-15.786667a20.053333 20.053333 0 0 0-20.906666 13.226667c-6.826667 16.64 10.24 32.853333 16.213333 41.386667a126.293333 126.293333 0 0 1 12.8 19.2c2.133333 4.266667 2.133333 8.96 3.84 13.226666a348.586667 348.586667 0 0 0 16.64 34.986667 117.76 117.76 0 0 0 9.386667 15.786667c2.133333 2.986667 5.973333 4.266667 6.4 8.533333s-3.84 12.8-5.973334 19.2c-8.96 28.586667-5.546667 64.426667 7.68 85.333333 4.266667 6.4 13.653333 20.48 26.88 15.36s8.96-19.2 12.373334-32c0.853333-2.986667 0.426667-5.12 1.706666-6.826666l10.24 20.906666a145.92 145.92 0 0 0 33.28 34.56c5.973333 4.693333 10.666667 12.373333 18.773334 14.933334h-0.426667c-1.28-2.56-3.84-3.413333-5.973333-5.12a128.853333 128.853333 0 0 1-13.226667-15.36 344.32 344.32 0 0 1-28.586667-46.506667c-4.266667-7.68-7.68-16.64-11.093333-24.32s-1.28-7.68-4.266667-9.386667c-3.84 5.973333-9.386667 10.666667-12.373333 17.493334s-5.12 24.32-6.826667 38.4h-1.28c-8.106667-2.133333-11.093333-10.24-14.08-17.493334a109.653333 109.653333 0 0 1-2.133333-68.266666c1.706667-5.546667 9.386667-22.613333 6.4-27.306667s-6.4-7.68-9.386667-11.52a87.893333 87.893333 0 0 1-9.386666-16.213333c-6.4-14.08-11.946667-30.72-18.773334-44.8a126.72 126.72 0 0 0-12.8-19.626667c-4.693333-6.826667-10.24-11.52-14.08-19.626667s-2.986667-7.253333-1.28-10.24a4.693333 4.693333 0 0 1 3.413334-3.413333c3.413333-2.56 12.8 0.853333 16.213333 2.133333a143.786667 143.786667 0 0 1 25.173333 12.8c3.84 2.56 7.68 7.253333 12.373334 8.96h5.12c8.106667 1.706667 17.493333 0.426667 25.173333 2.986667a149.76 149.76 0 0 1 36.693333 17.493333A226.133333 226.133333 0 0 1 823.466667 400.213333c2.986667 5.973333 4.266667 11.52 7.253333 17.493334s11.946667 25.173333 17.493333 37.12a170.666667 170.666667 0 0 0 17.92 34.56z" fill="#017590" p-id="9738"></path></svg>