<svg t="1729217647813" class="icon" viewBox="0 0 1024 1024" version="1.1" xmlns="http://www.w3.org/2000/svg" p-id="1810" width="16" height="16"><path d="M128 170.667A42.667 42.667 0 0 1 170.667 128h256a42.667 42.667 0 0 1 42.666 42.667v256a42.667 42.667 0 0 1-42.666 42.666h-256A42.667 42.667 0 0 1 128 426.667v-256z m85.333 42.666V384H384V213.333H213.333z" p-id="1811" fill="#ffffff"></path><path d="M597.333 341.333H426.667V256h170.666v85.333z m0 426.667H426.667v-85.333h170.666V768z m-256-341.333v170.666H256V426.667h85.333z m426.667 0v170.666h-85.333V426.667H768z" p-id="1812" fill="#ffffff"></path><path d="M128 597.333a42.667 42.667 0 0 1 42.667-42.666h256a42.667 42.667 0 0 1 42.666 42.666v256A42.667 42.667 0 0 1 426.667 896h-256A42.667 42.667 0 0 1 128 853.333v-256zM213.333 640v170.667H384V640H213.333z m341.334-469.333A42.667 42.667 0 0 1 597.333 128h256A42.667 42.667 0 0 1 896 170.667v256a42.667 42.667 0 0 1-42.667 42.666h-256a42.667 42.667 0 0 1-42.666-42.666v-256zM640 213.333V384h170.667V213.333H640z" p-id="1813" fill="#ffffff"></path><path d="M554.667 597.333a42.667 42.667 0 0 1 42.666-42.666h256A42.667 42.667 0 0 1 896 597.333v256A42.667 42.667 0 0 1 853.333 896h-256a42.667 42.667 0 0 1-42.666-42.667v-256zM640 640v170.667h170.667V640H640z" fill="#0078FF" p-id="1814"></path></svg>