<svg data-v-0dd9719b="" version="1.0" xmlns="http://www.w3.org/2000/svg" xmlns:xlink="http://www.w3.org/1999/xlink" width="100%" height="100%" viewBox="80 80 180 90" preserveAspectRatio="xMidYMid meet" color-interpolation-filters="sRGB" style="margin: auto;"> 
<g data-v-0dd9719b="" fill="#FFFFFF" class="iconlinesvg-g iconlinesvg" transform="translate(85.0064468383789,93.86589813232422)">
<g class="tp-name" transform="translate(0,0)">
<g transform="translate(0, 0)">
<g>
<g class="imagesvg">
<g>
<rect fill="#FFFFFF" fill-opacity="0" stroke-width="2" x="0" y="0" width="42.69739849946284" height="47.690072153179166" class="image-rect"></rect> 
<svg x="0" y="0" width="42.69739849946284" height="47.690072153179166" filtersec="colorsb2818088320" class="image-svg-svg primary" style="overflow: visible;">
<svg xmlns="http://www.w3.org/2000/svg" viewBox="0 0 94.84000396728516 105.93000793457031"><title>资源 13</title>
<path fill="#5273FF" d="M69.97 24.87l-.6.6v42.85L4.64 3.6l-.6-.6H0v32.06l25.47 25.47L41.8 76.86l28.02 28.02 1.05 1.05h23.97V0L69.97 24.87z"></path>
<path fill="#238be8" d="M25.47 72.07L0 46.6v59.18h25.47V72.07z"></path>
</svg>
</svg> 
<!---->
</g>
</g>
</g>
</g>
<g transform="translate(46, 3.9741324023095395)">
<g data-gra="path-name" fill="#FFFFFF" transform="scale(1)">
<path d="M4.05 0L4.05-39.74L20.91-39.74Q27.23-39.74 30.69-38.49L30.69-38.49Q37.06-36.17 39.21-29.97L39.21-29.97Q40.81-25.20 40.81-19.78L40.81-19.78Q40.81-14.42 39.27-9.65L39.27-9.65Q37.72-4.77 34.14-2.44L34.14-2.44Q31.88-1.01 29.17-0.51Q26.45 0 20.91 0L20.91 0L4.05 0ZM20.91-32.65L12.51-32.65L12.51-7.09L20.91-7.09Q26.45-7.09 28.60-9.53L28.60-9.53Q29.91-11.08 30.71-13.88Q31.52-16.68 31.52-19.84L31.52-19.84Q31.52-23.36 30.57-26.28Q29.61-29.20 28.06-30.63L28.06-30.63Q25.80-32.65 20.91-32.65L20.91-32.65Z" transform="translate(-4.051638530287985, 39.74180734856009)"></path></g>
</g>
<g transform="translate(86, 3.9741324023095395)">
<g data-gra="path-name" fill="#FFFFFF" transform="scale(1)">
<path d="M26.04 0L4.05 0L4.05-39.74L26.51-39.74Q31.82-39.74 34.20-38.49L34.20-38.49Q37.00-37.12 38.43-33.90L38.43-33.90Q39.44-31.70 39.44-29.31L39.44-29.31Q39.44-26.22 37.81-23.54Q36.17-20.85 33.66-19.84L33.66-19.84Q39.44-17.22 39.44-10.49L39.44-10.49Q39.44-6.61 37.60-3.99L37.60-3.99Q35.99-1.73 33.49-0.86Q30.98 0 26.04 0L26.04 0ZM12.51-32.65L12.51-23.42L24.01-23.42Q25.86-23.42 26.66-23.59Q27.47-23.77 28.24-24.37L28.24-24.37Q30.09-25.80 30.09-28.30L30.09-28.30Q30.09-30.69 28.36-31.82L28.36-31.82Q27.11-32.65 24.19-32.65L24.19-32.65L12.51-32.65ZM12.51-16.33L12.51-7.09L24.01-7.09Q25.86-7.09 26.69-7.27Q27.53-7.45 28.24-8.04L28.24-8.04Q30.09-9.47 30.09-11.98L30.09-11.98Q30.09-14.36 28.36-15.49L28.36-15.49Q27.11-16.33 24.19-16.33L24.19-16.33L12.51-16.33Z" transform="translate(-4.051638530287985, 39.74180734856009)"></path>
</g>
</g>
<g transform="translate(125, 3.9741324023095395)">
<g data-gra="path-name" fill="#FFFFFF" transform="scale(1)">
<path d="M3.87-39.74L16.21-39.74L26.10-8.70L36.52-39.74L48.86-39.74L48.86 0L40.81 0L40.81-29.79L30.45 0L21.75 0L11.92-29.79L11.92 0L3.87 0L3.87-39.74Z" transform="translate(-3.8728897715988087, 39.74180734856009)"></path>
</g>
</g>
</g> 
<g data-gra="path-slogan" fill-rule="" class="tp-slogan" fill="#FEFFFF" transform="translate(5,53.6900749206543)">
<rect x="0" height="1" y="3.7899999618530273" width="46.993553161621094"></rect> 
<rect height="1" y="3.7899999618530273" width="46.993553161621094" x="112.9935531616211"></rect> 
<g transform="translate(49.993553161621094,0)">
<g transform="scale(1)">
<path d="M2.30-8.58L6.61-1.64L6.61-8.58L7.73-8.58L7.73 0L6.42 0L2.06-6.94L2.02-6.94L2.02 0L0.89 0L0.89-8.58L2.30-8.58ZM10.83-1.03L15.98-1.03L15.98 0L9.66 0L9.66-8.58L15.89-8.58L15.89-7.59L10.83-7.59L10.83-4.92L15.52-4.92L15.52-3.89L10.83-3.89L10.83-1.03ZM24.23-8.58L21.33-4.41L24.38 0L22.92 0L20.58-3.52L18.23 0L16.83 0L19.92-4.41L17.02-8.58L18.47-8.58L20.63-5.30L22.83-8.58L24.23-8.58ZM27.66-7.59L24.75-7.59L24.75-8.58L31.69-8.58L31.69-7.59L28.78-7.59L28.78 0L27.66 0L27.66-7.59ZM39.56 0L36.09 0L36.09-8.58L39.61-8.58Q43.08-8.39 43.22-4.41L43.22-4.41Q43.03-0.09 39.56 0L39.56 0ZM39.42-7.64L37.27-7.64L37.27-0.98L39.52-0.98Q41.95-1.13 42.05-4.31L42.05-4.31Q42-7.55 39.42-7.64L39.42-7.64ZM47.91-7.64L45.84-7.64L45.84-4.97L47.91-4.97Q49.73-4.92 49.69-6.38L49.69-6.38Q49.69-7.64 47.91-7.64L47.91-7.64ZM48.38 0L44.67 0L44.67-8.58L48.47-8.58Q50.77-8.48 50.86-6.42L50.86-6.42Q50.86-5.16 49.73-4.64L49.73-4.64Q51.33-4.08 51.33-2.53L51.33-2.53Q51.19-0.09 48.38 0L48.38 0ZM48.09-3.98L45.84-3.98L45.84-0.98L48.33-0.98Q50.11-1.03 50.16-2.53L50.16-2.53Q50.16-3.98 48.09-3.98L48.09-3.98ZM60.89-8.58L60.89 0L59.77 0L59.77-5.06Q59.77-5.77 59.77-7.22L59.77-7.22L57.33 0L56.16 0L53.77-7.22L53.72-7.22Q53.72-6.70 53.77-5.67L53.77-5.67Q53.77-5.16 53.77-5.06L53.77-5.06L53.77 0L52.59 0L52.59-8.58L54.28-8.58L56.77-1.31L59.20-8.58L60.89-8.58Z" transform="translate(-0.890625, 8.578125)"></path>
</g>
</g>
</g>
</g>
<defs v-gra="od">
</defs>
</svg>